<?xml version="1.0" standalone="no"?>
<!DOCTYPE svg PUBLIC "-//W3C//DTD SVG 20010904//EN"
 "http://www.w3.org/TR/2001/REC-SVG-20010904/DTD/svg10.dtd">
<svg version="1.0" xmlns="http://www.w3.org/2000/svg"
 width="1068.000000pt" height="1068.000000pt" viewBox="0 0 1068.000000 1068.000000"
 preserveAspectRatio="xMidYMid meet">
<metadata>
Created by potrace 1.14, written by Peter Selinger 2001-2017
</metadata>
<g transform="translate(0.000000,1068.000000) scale(0.100000,-0.100000)"
fill="#000000" stroke="none">
<path d="M2100 8986 c-72 -27 -139 -66 -158 -93 -11 -16 -36 -61 -56 -102 -32
-63 -37 -82 -37 -140 1 -139 -10 -447 -16 -461 -4 -8 -7 -28 -8 -45 -3 -81
-18 -271 -21 -277 -4 -6 -16 -229 -18 -320 -1 -25 -3 -49 -7 -52 -3 -3 -4 -29
-2 -58 7 -146 2 -329 -12 -468 -9 -85 -16 -171 -16 -190 0 -19 -6 -71 -14
-115 -7 -44 -16 -120 -20 -170 -3 -49 -13 -153 -22 -230 -9 -77 -17 -192 -18
-255 -3 -155 -2 -150 -25 -150 -24 0 -26 -9 -4 -24 13 -10 16 -49 18 -271 2
-207 6 -270 19 -310 20 -62 43 -134 63 -200 21 -67 86 -226 122 -300 17 -33
37 -82 45 -110 8 -27 26 -76 41 -109 14 -32 26 -67 26 -77 0 -11 15 -50 34
-87 18 -37 42 -96 52 -132 9 -36 23 -74 30 -85 12 -19 40 -107 48 -152 10 -47
38 -160 46 -178 18 -44 44 -300 47 -465 2 -96 6 -206 10 -243 4 -46 1 -76 -7
-92 -11 -21 -11 -45 1 -80 5 -17 -13 -266 -22 -298 -5 -17 -5 -35 -1 -39 4 -4
4 -51 1 -105 -4 -53 -5 -149 -2 -213 2 -64 -1 -135 -7 -161 -13 -55 -19 -240
-9 -289 4 -19 14 -64 22 -100 8 -36 13 -78 11 -95 -3 -16 0 -37 6 -45 9 -13
12 -13 25 4 13 18 17 17 97 -16 l83 -35 0 -57 c0 -58 11 -76 48 -76 18 0 18
-1 -16 68 -16 32 -16 32 7 32 13 0 28 6 34 13 8 9 37 13 98 11 l88 -1 72 69
c76 74 77 76 134 253 40 124 48 225 65 825 14 476 28 689 53 830 6 30 15 114
22 185 17 202 20 215 46 268 26 51 80 108 124 132 14 7 46 16 72 20 44 7 52 4
101 -28 51 -34 90 -76 115 -123 16 -29 53 -169 62 -228 6 -45 -1 -349 -14
-636 -4 -63 -8 -227 -11 -365 -3 -137 -7 -261 -10 -275 -2 -14 -9 -123 -15
-242 -12 -242 -3 -341 44 -493 l25 -80 66 -39 c36 -21 68 -42 71 -48 3 -5 19
-6 34 -3 23 5 32 2 45 -19 19 -28 44 -33 77 -15 17 9 23 8 30 -5 11 -19 38
-21 38 -3 0 7 30 21 73 32 84 23 192 91 192 121 0 10 2 21 5 24 25 25 64 130
89 240 17 76 22 269 9 390 -6 63 -11 130 -10 149 1 33 0 33 -14 12 -8 -11 -19
-21 -25 -21 -16 0 -10 28 9 42 16 11 19 27 19 100 1 48 8 126 16 175 9 48 23
149 32 223 32 273 34 281 77 365 46 90 94 150 147 182 35 21 41 21 186 12 83
-6 179 -11 215 -13 36 -2 94 -11 130 -19 82 -20 330 -37 524 -37 l149 0 81
-44 c45 -25 93 -57 107 -73 106 -115 128 -205 141 -568 13 -382 13 -411 -16
-636 -16 -125 -26 -256 -26 -331 0 -124 0 -126 36 -198 31 -62 45 -77 96 -110
33 -22 75 -44 94 -50 19 -6 34 -16 34 -22 0 -7 5 -6 15 2 8 6 23 9 35 5 31
-10 117 13 182 49 47 25 60 38 72 71 8 22 26 67 39 100 29 69 51 236 66 482 5
89 15 171 21 182 7 14 7 27 1 39 -11 21 2 189 17 219 5 10 12 43 15 74 3 31
14 74 25 95 11 22 25 64 31 94 38 170 99 296 179 370 119 110 152 127 227 116
53 -8 92 -39 120 -93 10 -21 24 -45 31 -53 14 -19 54 -138 54 -162 0 -10 6
-29 14 -41 26 -42 39 -179 32 -345 -4 -86 -7 -314 -7 -507 1 -331 2 -357 25
-475 26 -128 81 -277 117 -316 21 -22 85 -41 187 -54 52 -7 74 -5 125 12 34
12 70 28 80 36 15 13 24 14 47 5 34 -13 43 -5 35 30 -5 17 -2 26 9 30 9 4 16
18 16 31 0 24 6 41 37 114 8 17 17 56 20 85 3 28 18 79 33 113 33 73 46 171
29 221 -10 31 -9 38 10 63 11 16 18 35 15 44 -3 8 -1 31 5 52 8 28 7 42 -2 53
-10 12 -9 14 5 9 13 -6 17 2 21 40 15 130 20 154 57 287 12 44 30 116 40 160
9 44 25 107 34 140 49 174 69 255 76 305 4 30 14 88 23 127 9 40 14 86 10 103
-4 23 -1 37 15 53 26 29 53 149 58 262 4 97 4 96 40 262 14 61 31 169 38 240
8 70 28 200 46 288 17 88 29 172 26 186 -3 15 -2 29 1 33 4 3 8 18 9 33 6 66
16 136 34 253 10 69 28 197 40 285 11 88 25 189 30 225 19 136 30 238 35 329
3 51 7 97 10 101 4 6 11 129 30 525 1 33 6 76 9 95 15 81 28 233 30 350 2 79
9 146 19 181 11 37 17 91 16 155 -1 55 0 104 1 109 1 6 2 14 1 19 -1 4 2 13 7
20 5 6 13 32 16 59 6 39 5 47 -9 47 -13 0 -12 5 6 30 23 30 28 93 15 159 -3
14 -1 33 4 41 9 13 11 13 20 0 5 -8 10 -10 10 -5 0 6 -4 15 -9 20 -11 13 5
376 19 430 6 22 12 83 14 135 2 52 7 108 11 123 4 15 2 48 -5 72 -7 24 -9 52
-5 62 14 34 4 116 -21 165 -27 53 -91 121 -136 144 -38 20 -175 54 -216 54
-18 0 -55 -11 -83 -25 -27 -14 -54 -23 -59 -20 -21 13 -151 -83 -150 -111 0
-5 7 0 15 10 8 11 18 17 21 13 9 -9 -15 -37 -32 -37 -8 0 -15 -4 -15 -10 -2
-12 -5 -27 -9 -37 -2 -5 -4 -12 -5 -18 -6 -38 -20 -84 -31 -108 -18 -34 -23
-72 -34 -267 -5 -85 -11 -175 -14 -200 -3 -25 -8 -83 -11 -130 -3 -47 -14
-150 -25 -230 -25 -195 -43 -415 -35 -441 4 -11 2 -33 -4 -47 -6 -15 -13 -47
-15 -72 -9 -112 -44 -349 -70 -475 -8 -38 -21 -104 -30 -145 -30 -150 -93
-270 -192 -367 -109 -108 -146 -123 -323 -134 -392 -23 -425 -27 -410 -45 6
-8 15 -12 19 -9 5 3 6 -5 2 -17 -4 -15 -2 -19 7 -14 7 5 23 -1 37 -15 19 -18
27 -20 33 -11 6 10 10 10 18 0 10 -14 24 -48 20 -48 -4 0 -77 38 -102 53 -11
7 -31 18 -44 26 -19 11 -21 15 -10 23 10 7 8 8 -8 3 -12 -3 -24 -1 -28 5 -9
15 -46 12 -96 -6 -33 -12 -94 -17 -239 -21 -107 -2 -199 -5 -205 -5 -23 -2
-180 14 -188 19 -10 6 -155 25 -197 26 -14 0 -56 4 -95 9 -38 6 -176 9 -305 7
-458 -5 -488 -5 -502 9 -6 6 -24 12 -39 12 -15 0 -31 5 -34 10 -4 6 -15 8 -26
5 -12 -4 -21 -1 -25 8 -3 8 -15 15 -27 15 -90 3 -286 83 -438 180 -70 44 -205
188 -215 230 -4 12 -10 22 -15 22 -5 0 -20 21 -33 48 -13 26 -33 56 -45 66
-12 11 -21 29 -21 41 0 11 -6 27 -12 33 -15 15 -15 112 0 472 6 140 16 273 21
295 6 22 11 67 11 101 0 33 4 85 10 115 10 56 28 224 36 339 6 83 9 90 34 90
24 0 27 15 4 24 -13 5 -15 14 -10 44 27 144 11 322 -33 382 -10 15 -30 49 -44
77 -25 49 -75 90 -149 124 -39 17 -127 -5 -189 -48 -26 -18 -59 -35 -74 -39
-41 -10 -75 -71 -86 -154 -5 -39 -12 -76 -15 -82 -4 -6 -11 -40 -15 -77 -24
-181 -33 -217 -65 -281 -39 -78 -62 -98 -122 -110 -31 -6 -96 -20 -143 -30
-130 -30 -300 -25 -749 21 -291 30 -341 40 -345 69 -1 3 -4 66 -9 140 -10 196
-26 344 -37 354 -5 6 -9 22 -9 38 0 15 -8 31 -17 37 -10 6 -12 11 -5 11 17 0
15 27 -7 85 -11 28 -17 62 -14 77 7 37 -36 103 -95 147 -67 50 -141 63 -212
37z m152 -51 c4 -17 1 -25 -8 -25 -9 0 -13 10 -12 25 1 14 5 25 9 25 4 0 9
-11 11 -25z m79 -61 c11 -14 10 -15 -11 -12 -13 1 -25 9 -28 16 -5 17 23 15
39 -4z m6559 -51 c7 -6 -23 -23 -42 -23 -18 0 -24 20 -11 33 6 7 42 0 53 -10z
m66 -18 c4 -10 13 -13 25 -10 11 4 19 2 19 -4 0 -6 11 -11 25 -11 15 0 25 -6
25 -14 0 -16 -26 -13 -77 10 -17 8 -36 14 -42 14 -12 0 -15 13 -4 23 11 11 23
8 29 -8z m-266 -15 c0 -5 -7 -7 -15 -4 -8 4 -15 8 -15 10 0 2 7 4 15 4 8 0 15
-4 15 -10z m-60 -25 c0 -9 -6 -12 -16 -8 -13 5 -13 7 -2 14 17 11 18 11 18 -6z
m220 -91 c0 -19 -16 -18 -24 2 -11 27 -7 37 9 24 8 -7 15 -19 15 -26z m-4430
-134 c0 -11 -4 -20 -9 -20 -14 0 -23 18 -16 30 10 17 25 11 25 -10z m71 4 c12
-14 11 -16 -5 -13 -11 2 -21 10 -24 17 -5 17 13 15 29 -4z m4464 6 c3 -5 -1
-10 -10 -10 -9 0 -13 5 -10 10 3 6 8 10 10 10 2 0 7 -4 10 -10z m-4575 -10 c0
-5 -5 -10 -11 -10 -5 0 -7 5 -4 10 3 6 8 10 11 10 2 0 4 -4 4 -10z m120 -45
c7 -9 11 -18 8 -21 -8 -8 -58 18 -52 27 8 14 30 10 44 -6z m4254 -170 c3 -8 3
-15 0 -15 -3 0 -12 7 -20 15 -13 13 -13 15 -1 15 8 0 17 -7 21 -15z m316 -15
c0 -5 -4 -10 -10 -10 -5 0 -10 5 -10 10 0 6 5 10 10 10 6 0 10 -4 10 -10z
m-240 -46 c0 -8 -19 -13 -24 -6 -3 5 1 9 9 9 8 0 15 -2 15 -3z m179 -276 c1
-5 -3 -8 -9 -8 -5 0 -10 12 -9 28 0 24 1 25 9 7 5 -11 9 -23 9 -27z m-6934
-58 c3 -5 2 -10 -4 -10 -5 0 -13 5 -16 10 -3 6 -2 10 4 10 5 0 13 -4 16 -10z
m6951 -47 c-10 -10 -19 5 -10 18 6 11 8 11 12 0 2 -7 1 -15 -2 -18z m-6786
-118 c0 -8 -7 -15 -15 -15 -8 0 -15 7 -15 15 0 8 7 15 15 15 8 0 15 -7 15 -15z
m6615 -135 c3 -5 -1 -10 -9 -10 -9 0 -16 5 -16 10 0 6 4 10 9 10 6 0 13 -4 16
-10z m-7025 -57 c0 -21 -3 -24 -9 -14 -5 8 -7 20 -4 28 8 21 13 15 13 -14z
m7160 -168 c0 -8 -4 -15 -10 -15 -5 0 -10 7 -10 15 0 8 5 15 10 15 6 0 10 -7
10 -15z m-30 -15 c0 -5 -2 -10 -4 -10 -3 0 -8 5 -11 10 -3 6 -1 10 4 10 6 0
11 -4 11 -10z m-6860 -80 c0 -5 -4 -10 -10 -10 -5 0 -10 5 -10 10 0 6 5 10 10
10 6 0 10 -4 10 -10z m664 -16 c6 -15 5 -15 -51 -16 -33 -1 -73 -26 -73 -45 0
-5 33 -7 73 -7 39 1 80 -3 90 -8 12 -6 17 -5 17 6 0 23 45 0 59 -30 9 -20 8
-26 -4 -30 -8 -4 -15 -10 -15 -15 0 -4 7 -6 15 -3 20 8 19 -13 -2 -24 -12 -7
-14 -18 -10 -40 4 -22 1 -34 -13 -47 -10 -9 -22 -30 -25 -45 -3 -16 -18 -36
-32 -46 -22 -14 -32 -15 -58 -5 -17 6 -48 11 -68 11 -20 0 -39 5 -42 10 -3 6
-14 10 -24 10 -31 0 -64 45 -62 87 2 65 5 88 11 93 4 3 19 28 35 55 16 28 41
64 56 80 25 26 34 30 73 27 26 -2 47 -10 50 -18z m423 -10 c-9 -9 -28 6 -21
18 4 6 10 6 17 -1 6 -6 8 -13 4 -17z m-377 -24 c0 -13 -20 -13 -40 0 -12 8 -9
10 13 10 15 0 27 -4 27 -10z m809 -33 c6 -8 7 -17 3 -21 -4 -4 -2 -6 3 -4 17
5 134 -56 134 -70 1 -7 -4 -22 -9 -33 -9 -15 -15 -17 -30 -9 -14 8 -20 8 -20
0 0 -6 11 -16 25 -22 14 -6 32 -22 40 -35 15 -22 14 -23 -10 -23 -14 0 -28 -7
-31 -15 -4 -8 -14 -15 -23 -15 -9 0 -22 -9 -28 -20 -21 -33 -97 -61 -156 -58
-48 3 -53 5 -74 43 -23 40 -31 91 -14 80 5 -3 13 -1 16 5 4 6 -6 16 -24 23
-36 13 -39 23 -11 32 11 3 20 12 20 19 0 8 19 32 41 55 32 32 49 41 75 41 27
0 34 4 34 20 0 23 22 27 39 7z m721 -115 c0 -5 -9 -17 -19 -26 -23 -21 -38 -4
-15 18 17 17 34 21 34 8z m-1090 -75 c0 -5 -7 -4 -15 3 -8 7 -15 20 -15 29 1
13 3 13 15 -3 8 -11 15 -24 15 -29z m-1382 -16 c-14 -5 -31 15 -23 29 5 8 11
6 20 -7 9 -11 10 -19 3 -22z m8 -68 c-11 -11 -19 6 -11 24 8 17 8 17 12 0 3
-10 2 -21 -1 -24z m14 -63 c0 -5 -7 -10 -15 -10 -8 0 -15 5 -15 10 0 6 7 10
15 10 8 0 15 -4 15 -10z m1298 -23 c2 -10 -3 -17 -12 -17 -10 0 -16 9 -16 21
0 24 23 21 28 -4z m-48 3 c12 -7 12 -12 2 -22 -10 -10 -15 -10 -22 2 -19 29
-9 39 20 20z m220 -30 c0 -5 -7 -10 -15 -10 -8 0 -15 5 -15 10 0 6 7 10 15 10
8 0 15 -4 15 -10z m-1450 -62 c0 -5 -9 -4 -20 2 -11 6 -18 15 -14 21 6 11 34
-7 34 -23z m1475 22 c3 -5 -3 -10 -15 -10 -12 0 -18 5 -15 10 3 6 10 10 15 10
5 0 12 -4 15 -10z m5305 -50 c0 -5 -7 -10 -15 -10 -8 0 -15 5 -15 10 0 6 7 10
15 10 8 0 15 -4 15 -10z m-6560 -24 c0 -3 -4 -8 -10 -11 -5 -3 -10 -1 -10 4 0
6 5 11 10 11 6 0 10 -2 10 -4z m1101 -59 c-1 -12 -15 -9 -19 4 -3 6 1 10 8 8
6 -3 11 -8 11 -12z m266 -22 c0 -17 -13 -20 -21 -6 -4 5 0 12 6 14 7 3 13 6
14 6 0 1 1 -6 1 -14z m-1315 -90 c0 -5 -5 -11 -11 -13 -6 -2 -11 4 -11 13 0 9
5 15 11 13 6 -2 11 -8 11 -13z m1188 -21 c0 -12 -4 -12 -20 -4 -11 6 -20 12
-20 13 0 2 9 3 20 4 12 1 20 -4 20 -13z m100 -34 c0 -5 -8 -10 -17 -10 -15 0
-16 2 -3 10 19 12 20 12 20 0z m-340 -15 c0 -8 -4 -15 -9 -15 -13 0 -22 16
-14 24 11 11 23 6 23 -9z m230 -115 c0 -5 -7 -10 -16 -10 -8 0 -12 5 -9 10 3
6 10 10 16 10 5 0 9 -4 9 -10z m-1242 -68 c6 -18 -15 -14 -22 4 -4 10 -1 14 6
12 6 -2 14 -10 16 -16z m1347 7 c11 -17 -1 -21 -15 -4 -8 9 -8 15 -2 15 6 0
14 -5 17 -11z m555 -19 c0 -5 -7 -10 -15 -10 -8 0 -15 5 -15 10 0 6 7 10 15
10 8 0 15 -4 15 -10z m-2162 -49 c3 -8 -1 -12 -9 -9 -7 2 -15 10 -17 17 -3 8
1 12 9 9 7 -2 15 -10 17 -17z m1282 -11 c0 -5 -4 -10 -9 -10 -6 0 -13 5 -16
10 -3 6 1 10 9 10 9 0 16 -4 16 -10z m70 -20 c0 -5 -4 -10 -10 -10 -5 0 -10 5
-10 10 0 6 5 10 10 10 6 0 10 -4 10 -10z m1024 -16 c3 -8 2 -12 -4 -9 -6 3
-10 10 -10 16 0 14 7 11 14 -7z m-60 -9 c-4 -8 -8 -15 -10 -15 -2 0 -4 7 -4
15 0 8 4 15 10 15 5 0 7 -7 4 -15z m-647 -9 c4 -7 15 -16 23 -19 11 -4 9 -6
-5 -6 -11 -1 -26 8 -33 19 -7 11 -8 20 -3 20 6 0 14 -6 18 -14z m-107 0 c0 -2
-7 -7 -16 -10 -8 -3 -12 -2 -9 4 6 10 25 14 25 6z m1000 -11 c-7 -8 -17 -15
-23 -15 -6 0 -2 7 9 15 25 19 30 19 14 0z m-1080 -14 c0 -10 -30 -24 -37 -17
-3 3 -2 9 2 15 8 13 35 15 35 2z m4954 -16 c-4 -8 -8 -15 -10 -15 -2 0 -4 7
-4 15 0 8 4 15 10 15 5 0 7 -7 4 -15z m-4100 -23 c3 -5 -1 -9 -9 -9 -8 0 -12
4 -9 9 3 4 7 8 9 8 2 0 6 -4 9 -8z m166 4 c0 -2 -7 -7 -16 -10 -8 -3 -12 -2
-9 4 6 10 25 14 25 6z m-1180 -76 c0 -5 -4 -10 -9 -10 -6 0 -13 5 -16 10 -3 6
1 10 9 10 9 0 16 -4 16 -10z m-1050 -10 c0 -5 -4 -10 -10 -10 -5 0 -10 5 -10
10 0 6 5 10 10 10 6 0 10 -4 10 -10z m6350 -10 c0 -13 -11 -13 -30 0 -12 8
-11 10 8 10 12 0 22 -4 22 -10z m-6440 -14 c0 -3 -4 -8 -10 -11 -5 -3 -10 -1
-10 4 0 6 5 11 10 11 6 0 10 -2 10 -4z m1905 -6 c-3 -5 -10 -10 -16 -10 -5 0
-9 5 -9 10 0 6 7 10 16 10 8 0 12 -4 9 -10z m553 -29 c3 -8 -1 -12 -9 -9 -7 2
-15 10 -17 17 -3 8 1 12 9 9 7 -2 15 -10 17 -17z m3572 9 c0 -5 -2 -10 -4 -10
-3 0 -8 5 -11 10 -3 6 -1 10 4 10 6 0 11 -4 11 -10z m-3460 -10 c0 -5 -7 -7
-15 -4 -8 4 -15 8 -15 10 0 2 7 4 15 4 8 0 15 -4 15 -10z m3967 -16 c-3 -3
-12 -4 -19 -1 -8 3 -5 6 6 6 11 1 17 -2 13 -5z m-4147 -24 c0 -5 -4 -10 -10
-10 -5 0 -10 5 -10 10 0 6 5 10 10 10 6 0 10 -4 10 -10z m-210 -12 c0 -7 -5
-20 -10 -28 -8 -12 -10 -9 -10 13 0 15 5 27 10 27 6 0 10 -6 10 -12z m395 2
c3 -5 2 -10 -4 -10 -5 0 -13 5 -16 10 -3 6 -2 10 4 10 5 0 13 -4 16 -10z
m-2810 -20 c4 -6 -5 -10 -20 -10 -15 0 -24 4 -20 10 3 6 12 10 20 10 8 0 17
-4 20 -10z m6030 -19 c-8 -26 -21 -27 -28 -2 -3 13 1 21 12 24 22 5 24 2 16
-22z m-4637 7 c13 -13 16 -38 5 -38 -5 0 -16 12 -26 25 -13 19 -15 25 -4 25 7
0 18 -5 25 -12z m112 -26 c-25 -4 -35 2 -26 17 5 7 13 7 27 -2 20 -12 20 -12
-1 -15z m1175 18 c-3 -5 -13 -10 -21 -10 -8 0 -14 5 -14 10 0 6 9 10 21 10 11
0 17 -4 14 -10z m-345 -65 c0 -8 -4 -15 -10 -15 -5 0 -10 7 -10 15 0 8 5 15
10 15 6 0 10 -7 10 -15z m420 -5 c0 -5 -6 -10 -14 -10 -8 0 -18 5 -21 10 -3 6
3 10 14 10 12 0 21 -4 21 -10z m150 0 c0 -5 -4 -10 -9 -10 -6 0 -13 5 -16 10
-3 6 1 10 9 10 9 0 16 -4 16 -10z m-399 -28 c5 -12 7 -22 4 -22 -8 0 -35 32
-35 42 0 17 23 3 31 -20z m-346 -2 c3 -5 -1 -10 -9 -10 -9 0 -16 5 -16 10 0 6
4 10 9 10 6 0 13 -4 16 -10z m4409 -25 c3 -9 0 -15 -9 -15 -9 0 -12 6 -9 15 4
8 7 15 9 15 2 0 5 -7 9 -15z m-5009 -5 c3 -5 -1 -10 -9 -10 -9 0 -16 5 -16 10
0 6 4 10 9 10 6 0 13 -4 16 -10z m805 -35 c0 -8 -4 -15 -10 -15 -5 0 -10 7
-10 15 0 8 5 15 10 15 6 0 10 -7 10 -15z m-2008 -20 c0 -5 -5 -11 -11 -13 -6
-2 -11 4 -11 13 0 9 5 15 11 13 6 -2 11 -8 11 -13z m-56 -22 c-10 -10 -19 5
-10 18 6 11 8 11 12 0 2 -7 1 -15 -2 -18z m1560 4 c4 -4 -2 -7 -14 -7 -11 0
-24 5 -27 10 -7 11 30 8 41 -3z m602 -48 c-3 -8 -7 -3 -11 10 -4 17 -3 21 5
13 5 -5 8 -16 6 -23z m3486 15 c4 -10 -3 -14 -24 -14 -17 0 -30 5 -30 13 0 17
47 18 54 1z m-4114 -16 c0 -17 -3 -19 -9 -9 -5 7 -14 10 -20 7 -6 -4 -16 -4
-23 0 -8 5 -6 10 8 15 33 13 44 10 44 -13z m310 11 c0 -5 -9 -9 -20 -9 -11 0
-20 4 -20 8 0 4 9 8 20 9 11 1 20 -2 20 -8z m240 -9 c0 -5 -5 -10 -11 -10 -5
0 -7 5 -4 10 3 6 8 10 11 10 2 0 4 -4 4 -10z m395 0 c3 -5 2 -10 -4 -10 -5 0
-13 5 -16 10 -3 6 -2 10 4 10 5 0 13 -4 16 -10z m-895 -6 c0 -8 -19 -13 -24
-6 -3 5 1 9 9 9 8 0 15 -2 15 -3z m3911 -27 c-16 -16 -25 -1 -10 16 8 8 16 11
18 5 2 -5 -2 -15 -8 -21z m989 13 c0 -5 -4 -10 -10 -10 -5 0 -10 5 -10 10 0 6
5 10 10 10 6 0 10 -4 10 -10z m-1820 -15 c0 -8 -4 -15 -10 -15 -5 0 -10 7 -10
15 0 8 5 15 10 15 6 0 10 -7 10 -15z m1100 0 c0 -8 -4 -15 -10 -15 -5 0 -7 7
-4 15 4 8 8 15 10 15 2 0 4 -7 4 -15z m762 -7 c-6 -6 -16 -7 -22 -3 -9 6 -9 9
1 16 17 10 34 0 21 -13z m-1562 -14 c0 -21 -17 -17 -23 5 -3 14 -1 18 9 14 8
-3 14 -11 14 -19z m281 -37 c-8 -8 -11 -7 -11 4 0 9 3 19 7 23 4 4 9 2 11 -4
3 -7 -1 -17 -7 -23z m1169 23 c0 -5 -4 -10 -10 -10 -5 0 -10 5 -10 10 0 6 5
10 10 10 6 0 10 -4 10 -10z m-556 -32 c19 -37 19 -38 6 -38 -5 0 -10 7 -10 16
0 8 -4 13 -9 10 -5 -3 -11 5 -13 19 -7 35 7 31 26 -7z m-4730 0 c-3 -5 -12 -4
-20 3 -19 16 -18 18 6 12 11 -3 17 -9 14 -15z m4616 -25 c0 -8 -4 -12 -9 -9
-5 4 -7 -2 -4 -13 3 -10 0 -22 -6 -25 -7 -5 -11 8 -11 40 0 40 2 45 15 34 8
-7 15 -19 15 -27z m-4127 -2 c-3 -12 -11 -17 -23 -14 -23 6 -15 33 10 33 13 0
17 -6 13 -19z m222 0 c8 -14 -8 -21 -34 -14 -17 4 -19 8 -9 14 17 11 35 11 43
0z m4415 -1 c0 -5 -2 -10 -4 -10 -3 0 -8 5 -11 10 -3 6 -1 10 4 10 6 0 11 -4
11 -10z m-440 -21 c0 -5 -4 -9 -8 -9 -5 0 -9 7 -9 15 0 8 4 12 9 9 4 -3 8 -9
8 -15z m570 -14 c0 -9 6 -12 18 -8 13 4 14 3 6 -6 -6 -6 -18 -9 -27 -6 -21 9
-30 35 -12 35 8 0 15 -7 15 -15z m-6620 -24 c0 -6 -4 -13 -10 -16 -5 -3 -10 1
-10 9 0 9 5 16 10 16 6 0 10 -4 10 -9z m1780 -10 c0 -12 -20 -25 -27 -18 -7 7
6 27 18 27 5 0 9 -4 9 -9z m140 -11 c0 -13 -11 -13 -30 0 -12 8 -11 10 8 10
12 0 22 -4 22 -10z m4162 -35 c4 -21 2 -24 -17 -23 -20 2 -21 5 -12 25 13 30
23 29 29 -2z m583 7 c-3 -3 -11 0 -18 7 -9 10 -8 11 6 5 10 -3 15 -9 12 -12z
m-1150 -2 c-3 -5 -10 -10 -16 -10 -5 0 -9 5 -9 10 0 6 7 10 16 10 8 0 12 -4 9
-10z m82 4 c-3 -3 -12 -4 -19 -1 -8 3 -5 6 6 6 11 1 17 -2 13 -5z m443 -4 c0
-5 -4 -10 -10 -10 -5 0 -10 5 -10 10 0 6 5 10 10 10 6 0 10 -4 10 -10z m-4170
-10 c-20 -13 -40 -13 -40 0 0 6 12 10 28 10 21 0 24 -2 12 -10z m3805 -29 c-3
-6 -14 -11 -23 -11 -15 1 -15 2 2 15 21 16 32 13 21 -4z m525 -6 c0 -8 -7 -15
-15 -15 -9 0 -12 6 -9 15 4 8 10 15 15 15 5 0 9 -7 9 -15z m-4317 -15 c-3 -12
-8 -19 -11 -16 -5 6 5 36 12 36 2 0 2 -9 -1 -20z m4733 -15 c-1 -33 -26 -33
-26 0 0 15 6 25 14 25 9 0 13 -10 12 -25z m-649 -1 c-3 -3 -12 -4 -19 -1 -8 3
-5 6 6 6 11 1 17 -2 13 -5z m191 -26 c-2 -6 -10 -14 -16 -16 -7 -2 -10 2 -6
12 7 18 28 22 22 4z m747 2 c3 -5 -1 -10 -9 -10 -9 0 -16 5 -16 10 0 6 4 10 9
10 6 0 13 -4 16 -10z m-5025 -20 c0 -5 -4 -10 -9 -10 -6 0 -13 5 -16 10 -3 6
1 10 9 10 9 0 16 -4 16 -10z m4078 -2 c-3 -7 -11 -13 -18 -13 -7 0 -15 6 -17
13 -3 7 4 12 17 12 13 0 20 -5 18 -12z m-4313 -8 c3 -5 -1 -10 -9 -10 -9 0
-16 5 -16 10 0 6 4 10 9 10 6 0 13 -4 16 -10z m4325 -110 c0 -5 -5 -10 -11
-10 -5 0 -7 5 -4 10 3 6 8 10 11 10 2 0 4 -4 4 -10z m-337 -35 c0 -6 -7 -11
-16 -13 -12 -3 -15 1 -11 13 7 17 25 17 27 0z m-3563 -15 c0 -5 -8 -10 -17
-10 -15 0 -16 2 -3 10 19 12 20 12 20 0z m4174 -57 c-3 -12 -12 -24 -19 -27
-10 -4 -11 2 -4 27 5 18 9 34 9 36 0 3 4 1 10 -5 5 -5 7 -19 4 -31z m-240 2
c-4 -8 -13 -15 -21 -15 -13 0 -13 3 -3 15 7 8 16 15 21 15 5 0 6 -7 3 -15z
m-3924 -4 c0 -6 -4 -13 -10 -16 -5 -3 -10 1 -10 9 0 9 5 16 10 16 6 0 10 -4
10 -9z m3200 -31 c0 -11 -4 -20 -9 -20 -5 0 -7 9 -4 20 3 11 7 20 9 20 2 0 4
-9 4 -20z m797 4 c-3 -3 -12 -4 -19 -1 -8 3 -5 6 6 6 11 1 17 -2 13 -5z m-969
-29 c-3 -3 -9 2 -12 12 -6 14 -5 15 5 6 7 -7 10 -15 7 -18z m-3888 -9 c0 -3
-4 -8 -10 -11 -5 -3 -10 -1 -10 4 0 6 5 11 10 11 6 0 10 -2 10 -4z m780 -16
c0 -19 -18 -19 -23 -1 -3 14 -1 18 9 14 8 -3 14 -9 14 -13z m3885 10 c3 -5 -1
-10 -10 -10 -9 0 -13 5 -10 10 3 6 8 10 10 10 2 0 7 -4 10 -10z m-2967 -12
c-6 -18 -28 -21 -28 -4 0 9 7 16 16 16 9 0 14 -5 12 -12z m3938 -15 c-10 -10
-19 5 -10 18 6 11 8 11 12 0 2 -7 1 -15 -2 -18z m-745 -6 c-1 -12 -15 -9 -19
4 -3 6 1 10 8 8 6 -3 11 -8 11 -12z m-663 -34 c6 -19 -25 -16 -32 3 -4 11 -1
14 11 12 9 -2 18 -9 21 -15z m297 8 c3 -5 1 -12 -5 -16 -5 -3 -10 1 -10 9 0
18 6 21 15 7z m275 -33 c0 -17 -3 -18 -14 -8 -8 6 -12 18 -9 26 7 19 23 7 23
-18z m-3206 -7 c3 -5 -1 -11 -9 -15 -9 -3 -15 0 -15 9 0 16 16 20 24 6z m2466
-27 c0 -8 -4 -14 -10 -14 -5 0 -10 2 -10 4 0 2 -3 12 -6 20 -5 12 -2 15 10 10
9 -3 16 -12 16 -20z m1550 -121 c0 -25 -1 -26 -16 -11 -9 9 -13 21 -10 27 13
20 26 11 26 -16z m-1182 -38 c14 -29 -2 -34 -18 -6 -12 24 -13 31 -2 31 5 0
14 -11 20 -25z m-3362 0 c-19 -14 -36 -12 -36 6 0 5 12 9 28 9 26 -1 26 -1 8
-15z m2869 5 c-3 -5 -10 -10 -16 -10 -5 0 -9 5 -9 10 0 6 7 10 16 10 8 0 12
-4 9 -10z m-3615 -20 c0 -5 -7 -10 -15 -10 -8 0 -15 5 -15 10 0 6 7 10 15 10
8 0 15 -4 15 -10z m4521 -13 c-10 -9 -11 -8 -5 6 3 10 9 15 12 12 3 -3 0 -11
-7 -18z m-786 -37 c3 -5 2 -10 -4 -10 -5 0 -13 5 -16 10 -3 6 -2 10 4 10 5 0
13 -4 16 -10z m1595 -4 c0 -8 -4 -18 -10 -21 -5 -3 -10 3 -10 14 0 12 5 21 10
21 6 0 10 -6 10 -14z m-4000 -106 c0 -5 -4 -10 -10 -10 -5 0 -10 5 -10 10 0 6
5 10 10 10 6 0 10 -4 10 -10z m-812 -48 c6 -18 -15 -14 -22 4 -4 10 -1 14 6
12 6 -2 14 -10 16 -16z m4726 -27 c-4 -8 -12 -15 -20 -15 -17 0 -18 17 -1 23
22 9 27 7 21 -8z m-4484 -5 c0 -5 -4 -10 -10 -10 -5 0 -10 5 -10 10 0 6 5 10
10 10 6 0 10 -4 10 -10z m-327 -25 c-6 -17 -25 -15 -31 3 -2 7 5 12 17 12 14
0 19 -5 14 -15z m907 5 c0 -5 -7 -10 -15 -10 -8 0 -15 5 -15 10 0 6 7 10 15
10 8 0 15 -4 15 -10z m3428 -21 c-2 -6 -8 -10 -13 -10 -5 0 -11 4 -13 10 -2 6
4 11 13 11 9 0 15 -5 13 -11z m-4198 -22 c0 -8 -7 -14 -15 -14 -11 0 -12 4 -4
14 6 7 13 13 15 13 2 0 4 -6 4 -13z m3650 -23 c0 -8 -5 -12 -10 -9 -6 4 -8 11
-5 16 9 14 15 11 15 -7z m-3706 -39 c4 -10 -1 -15 -16 -15 -17 0 -18 2 -8 15
7 8 14 15 15 15 2 0 5 -7 9 -15z m4747 -22 c13 -16 12 -17 -3 -4 -10 7 -18 15
-18 17 0 8 8 3 21 -13z m-4321 -48 c0 -8 0 -18 1 -22 0 -4 -4 -9 -9 -11 -12
-4 -24 26 -16 39 8 14 24 11 24 -6z m4300 -5 c9 -16 8 -18 -5 -14 -8 4 -15 12
-15 20 0 20 7 17 20 -6z m-4200 -30 c0 -5 -7 -10 -16 -10 -8 0 -12 5 -9 10 3
6 10 10 16 10 5 0 9 -4 9 -10z m530 -10 c8 -5 11 -12 7 -16 -4 -4 -15 0 -24 9
-18 18 -8 23 17 7z m-1022 -68 c2 -7 -3 -12 -12 -12 -9 0 -16 7 -16 16 0 17
22 14 28 -4z m349 -14 c-3 -7 -5 -2 -5 12 0 14 2 19 5 13 2 -7 2 -19 0 -25z
m833 22 c0 -5 -2 -10 -4 -10 -3 0 -8 5 -11 10 -3 6 -1 10 4 10 6 0 11 -4 11
-10z m-780 -55 c0 -8 -7 -15 -16 -15 -14 0 -14 3 -4 15 7 8 14 15 16 15 2 0 4
-7 4 -15z m-250 -75 c0 -5 -7 -10 -15 -10 -8 0 -15 5 -15 10 0 6 7 10 15 10 8
0 15 -4 15 -10z m3900 -51 c0 -5 -4 -9 -10 -9 -5 0 -10 7 -10 16 0 8 5 12 10
9 6 -3 10 -10 10 -16z m60 -6 c0 -3 -7 -3 -15 1 -9 3 -15 0 -15 -9 0 -8 -7
-15 -17 -15 -15 0 -15 2 1 19 15 17 46 19 46 4z m-3700 -27 c0 -13 -7 -26 -15
-30 -9 -3 -15 0 -15 9 0 8 6 15 13 16 10 0 10 2 0 6 -18 7 -16 23 2 23 9 0 15
-9 15 -24z m1195 -36 c3 -5 -1 -10 -9 -10 -9 0 -16 5 -16 10 0 6 4 10 9 10 6
0 13 -4 16 -10z m2510 -23 c24 -18 11 -41 -16 -27 -10 6 -19 17 -19 25 0 19
11 19 35 2z m393 -83 c7 -14 8 -23 2 -19 -15 9 -32 45 -22 45 5 0 14 -12 20
-26z m-958 -4 c0 -5 -7 -10 -15 -10 -8 0 -15 5 -15 10 0 6 7 10 15 10 8 0 15
-4 15 -10z m909 -54 c-9 -8 -10 -7 -5 7 3 10 7 24 7 30 1 7 3 4 6 -7 3 -10 -1
-23 -8 -30z m-2519 3 c0 -5 -4 -9 -10 -9 -5 0 -10 7 -10 16 0 8 5 12 10 9 6
-3 10 -10 10 -16z m2570 -12 c0 -5 -4 -5 -10 -2 -5 3 -10 14 -10 23 0 15 2 15
10 2 5 -8 10 -19 10 -23z m-3388 -12 c0 -5 -5 -11 -11 -13 -6 -2 -11 4 -11 13
0 9 5 15 11 13 6 -2 11 -8 11 -13z m3352 -62 c0 -16 -4 -27 -8 -26 -25 6 -28
11 -22 31 10 31 32 27 30 -5z m-744 -132 c0 -6 -4 -13 -10 -16 -5 -3 -10 1
-10 9 0 9 5 16 10 16 6 0 10 -4 10 -9z m777 -86 c-12 -24 -37 -35 -37 -16 0 8
38 41 46 41 1 0 -3 -11 -9 -25z m-812 -56 c10 -16 -1 -22 -26 -14 -17 6 -19 9
-8 16 19 12 26 11 34 -2z m719 -64 c-4 -8 -12 -15 -20 -15 -17 0 -18 17 -1 23
22 9 27 7 21 -8z m-704 -29 c0 -3 -4 -8 -10 -11 -5 -3 -10 -1 -10 4 0 6 5 11
10 11 6 0 10 -2 10 -4z m-3690 -76 c0 -5 -2 -10 -4 -10 -3 0 -8 5 -11 10 -3 6
-1 10 4 10 6 0 11 -4 11 -10z m-130 -34 c0 -2 -7 -9 -15 -16 -12 -10 -15 -10
-15 4 0 9 7 16 15 16 8 0 15 -2 15 -4z m4462 -21 c-5 -28 -22 -24 -22 6 0 10
6 19 14 19 9 0 12 -8 8 -25z m-4 -477 c-2 -6 -10 -14 -16 -16 -7 -2 -10 2 -6
12 7 18 28 22 22 4z m-4068 -218 c0 -11 -4 -20 -10 -20 -5 0 -10 9 -10 20 0
11 5 20 10 20 6 0 10 -9 10 -20z m38 -50 c0 -16 -3 -30 -8 -30 -12 0 -23 37
-15 50 12 19 22 10 23 -20z m-47 -3 c-13 -13 -26 -3 -16 12 3 6 11 8 17 5 6
-4 6 -10 -1 -17z m-1541 -52 c0 -8 -6 -15 -14 -15 -8 0 -17 -13 -21 -30 -7
-33 -22 -47 -36 -33 -6 6 0 21 16 39 14 16 25 35 25 42 0 6 7 12 15 12 8 0 15
-7 15 -15z m-4 -52 c-10 -10 -19 5 -10 18 6 11 8 11 12 0 2 -7 1 -15 -2 -18z
m-246 -623 c0 -5 -4 -10 -10 -10 -5 0 -10 5 -10 10 0 6 5 10 10 10 6 0 10 -4
10 -10z"/>
<path d="M2767 7000 c-45 -45 -46 -48 -25 -54 31 -8 92 49 68 64 -12 8 -12 10
3 16 9 3 17 10 17 15 0 16 -14 7 -63 -41z"/>
<path d="M3680 7130 c0 -21 16 -26 39 -11 11 7 10 11 -7 20 -28 15 -32 14 -32
-9z"/>
<path d="M1800 8621 c0 -12 5 -21 10 -21 6 0 10 6 10 14 0 8 -4 18 -10 21 -5
3 -10 -3 -10 -14z"/>
<path d="M4591 8391 c-10 -7 -10 -10 -1 -16 6 -4 16 -3 22 3 13 13 -4 23 -21
13z"/>
<path d="M4564 8275 c26 -19 42 -19 26 0 -7 8 -20 15 -29 15 -13 -1 -13 -3 3
-15z"/>
<path d="M4503 7803 c-18 -6 -16 -23 1 -23 17 0 30 16 19 23 -5 2 -14 2 -20 0z"/>
<path d="M9025 6847 c-4 -10 -5 -21 -1 -24 10 -10 18 4 13 24 -4 17 -4 17 -12
0z"/>
<path d="M5715 6090 c-3 -5 1 -10 10 -10 9 0 13 5 10 10 -3 6 -8 10 -10 10 -2
0 -7 -4 -10 -10z"/>
<path d="M8980 5924 c0 -8 5 -12 10 -9 6 4 8 11 5 16 -9 14 -15 11 -15 -7z"/>
<path d="M4460 3370 c-9 -16 -8 -18 5 -14 8 4 15 12 15 20 0 20 -7 17 -20 -6z"/>
<path d="M4490 3230 c0 -5 7 -10 15 -10 8 0 15 5 15 10 0 6 -7 10 -15 10 -8 0
-15 -4 -15 -10z"/>
<path d="M8260 1776 c0 -9 7 -16 16 -16 9 0 14 5 12 12 -6 18 -28 21 -28 4z"/>
<path d="M6606 1523 c-6 -14 -5 -15 5 -6 7 7 10 15 7 18 -3 3 -9 -2 -12 -12z"/>
<path d="M6556 1495 c-9 -26 -7 -32 5 -12 6 10 9 21 6 23 -2 3 -7 -2 -11 -11z"/>
<path d="M6487 1363 c-10 -9 -9 -23 2 -23 5 0 11 7 15 15 5 15 -5 20 -17 8z"/>
<path d="M7610 1301 c0 -12 2 -21 4 -21 2 0 12 -3 21 -6 13 -5 16 -2 13 17 -4
31 -38 39 -38 10z"/>
<path d="M7897 1233 c-13 -12 -7 -33 8 -33 8 0 15 9 15 20 0 20 -11 26 -23 13z"/>
<path d="M3226 894 c-18 -17 -18 -45 -1 -51 14 -4 37 49 26 60 -5 5 -16 1 -25
-9z"/>
</g>
</svg>
